<svg xmlns="http://www.w3.org/2000/svg" viewBox="0 0 565.83002 54"><g fill="#bb0e3d"><path d="M114.666 16.157h4.68v20.97h-4.68l-9.99-13.14v13.14h-4.68v-20.97h4.38l10.29 13.5v-13.5zM139.445 37.127l-1.95-4.53h-8.79l-1.95 4.53h-4.98l9.062-20.97h4.53l9.06 20.97h-4.982zm-6.33-14.73l-2.64 6.09h5.25l-2.61-6.09zM154.205 20.208v16.92h-4.68v-16.92h-5.94v-4.05h16.56v4.05h-5.94zM163.564 16.157h4.68v20.97h-4.68v-20.97zM191.044 34.232c-2.12 2.07-4.73 3.105-7.83 3.105-3.1 0-5.71-1.035-7.83-3.105-2.12-2.07-3.18-4.645-3.18-7.725s1.06-5.655 3.18-7.725c2.12-2.07 4.73-3.105 7.83-3.105 3.1 0 5.71 1.035 7.83 3.105 2.12 2.07 3.18 4.646 3.18 7.725 0 3.08-1.06 5.656-3.18 7.725zm-1.59-7.71c0-1.87-.6-3.465-1.8-4.785-1.2-1.32-2.675-1.98-4.425-1.98-1.752 0-3.227.66-4.426 1.98-1.2 1.32-1.8 2.916-1.8 4.785 0 1.87.6 3.46 1.8 4.77 1.2 1.31 2.674 1.965 4.425 1.965 1.75 0 3.224-.655 4.424-1.965 1.2-1.31 1.8-2.9 1.8-4.77zM212.854 16.157h4.68v20.97h-4.68l-9.99-13.14v13.14h-4.68v-20.97h4.38l10.29 13.5v-13.5zM237.633 37.127l-1.95-4.53h-8.79l-1.95 4.53h-4.98l9.062-20.97h4.53l9.06 20.97h-4.982zm-6.33-14.73l-2.64 6.09h5.25l-2.61-6.09zM245.043 37.127v-20.97h4.68v16.8h8.94v4.17h-13.62zM279.633 32.987c2.3 0 4.18-.91 5.64-2.73l3 3.09c-2.38 2.68-5.185 4.02-8.415 4.02-3.23 0-5.89-1.02-7.98-3.06-2.088-2.04-3.134-4.615-3.134-7.725 0-3.11 1.064-5.705 3.194-7.785s4.735-3.12 7.815-3.12c3.44 0 6.32 1.31 8.64 3.93l-2.91 3.3c-1.48-1.84-3.32-2.76-5.52-2.76-1.76 0-3.266.575-4.515 1.725-1.25 1.15-1.875 2.7-1.875 4.65 0 1.95.59 3.515 1.77 4.695 1.18 1.18 2.61 1.77 4.29 1.77zM306.753 37.127l-1.95-4.53h-8.79l-1.95 4.53h-4.98l9.062-20.97h4.53l9.06 20.97h-4.982zm-6.33-14.73l-2.64 6.09h5.25l-2.61-6.09zM328.833 16.157h4.68v20.97h-4.68l-9.99-13.14v13.14h-4.68v-20.97h4.38l10.29 13.5v-13.5zM348.303 32.987c2.3 0 4.18-.91 5.64-2.73l3 3.09c-2.38 2.68-5.185 4.02-8.415 4.02-3.23 0-5.89-1.02-7.98-3.06-2.088-2.04-3.134-4.615-3.134-7.725 0-3.11 1.064-5.705 3.194-7.785s4.735-3.12 7.815-3.12c3.44 0 6.32 1.31 8.64 3.93l-2.91 3.3c-1.48-1.84-3.32-2.76-5.52-2.76-1.76 0-3.266.575-4.515 1.725-1.25 1.15-1.875 2.7-1.875 4.65 0 1.95.59 3.515 1.77 4.695 1.18 1.18 2.61 1.77 4.29 1.77zM375.753 16.157v4.17h-10.44v4.32h9.39v3.99h-9.39v4.35h10.77v4.14h-15.45v-20.97h15.12zM397.263 23.118c0 3.36-1.33 5.53-3.99 6.51l5.31 7.5h-5.76l-4.65-6.69h-3.24v6.69h-4.68v-20.97h7.95c3.26 0 5.585.55 6.976 1.65 1.387 1.1 2.083 2.87 2.083 5.31zm-5.64 2.49c.58-.52.87-1.346.87-2.476s-.3-1.905-.9-2.325c-.6-.42-1.65-.63-3.15-.63h-3.51v6.21h3.42c1.6 0 2.69-.26 3.27-.78zM409.982 16.157h4.68v20.97h-4.68v-20.97zM434.492 16.157h4.68v20.97h-4.68l-9.99-13.14v13.14h-4.68v-20.97h4.38l10.29 13.5v-13.5zM449.237 20.342c-.45.37-.676.86-.676 1.47s.276 1.095.826 1.455c.55.36 1.82.785 3.81 1.275 1.99.49 3.535 1.225 4.636 2.205 1.1.98 1.65 2.41 1.65 4.29s-.705 3.405-2.115 4.575c-1.41 1.17-3.266 1.755-5.565 1.755-3.32 0-6.31-1.23-8.97-3.69l2.79-3.42c2.26 1.98 4.35 2.97 6.27 2.97.86 0 1.535-.185 2.025-.555.49-.37.735-.87.735-1.5s-.26-1.13-.78-1.5c-.52-.37-1.55-.745-3.09-1.125-2.44-.58-4.226-1.335-5.355-2.265-1.13-.93-1.694-2.39-1.694-4.38 0-1.99.715-3.525 2.145-4.605 1.43-1.08 3.215-1.62 5.355-1.62 1.4 0 2.8.24 4.2.72 1.4.48 2.62 1.16 3.66 2.04l-2.37 3.42c-1.82-1.38-3.7-2.07-5.64-2.07-.78 0-1.396.186-1.846.555zM472.172 20.208v16.92h-4.68v-16.92h-5.94v-4.05h16.56v4.05h-5.94zM481.53 16.157h4.68v20.97h-4.68v-20.97zM500.25 20.208v16.92h-4.68v-16.92h-5.94v-4.05h16.562v4.05h-5.94zM515.16 31.712c.78.97 1.83 1.455 3.15 1.455 1.32 0 2.364-.485 3.135-1.455.77-.97 1.155-2.295 1.155-3.975v-11.58h4.68v11.73c0 3.04-.84 5.375-2.52 7.005-1.68 1.63-3.83 2.445-6.45 2.445s-4.775-.82-6.465-2.46c-1.69-1.64-2.535-3.97-2.535-6.99v-11.73h4.68v11.58c0 1.68.39 3.006 1.17 3.975zM541.02 20.208v16.92h-4.68v-16.92h-5.94v-4.05h16.56v4.05h-5.94zM565.5 16.157v4.17h-10.44v4.32h9.39v3.99h-9.39v4.35h10.77v4.14h-15.45v-20.97h15.12z"/></g><path d="M75 27L60 0H5.77C2.582 0 0 2.59 0 5.786v42.428C0 51.41 2.583 54 5.77 54H60l15-27z" fill="#606060"/><path d="M73.5 2.815A5.857 5.857 0 0 0 68.487 0H64l15.2 27L64 54h4.486c2.055 0 3.96-1.07 5.015-2.815L87 27 73.5 2.815z" fill="#bb0e3d"/><g fill="#fff"><path d="M32 15h4v24h-4zM9 15v24h4V21.4L24 39h4V15h-4v17.6L13 15zM44 15h-4v24h4V29h11v10h4V15h-4v10H44z"/></g></svg>